<?xml version="1.0" encoding="iso-8859-1"?>
<!-- Generator: Adobe Illustrator 17.1.0, SVG Export Plug-In . SVG Version: 6.00 Build 0)  -->
<!DOCTYPE svg PUBLIC "-//W3C//DTD SVG 1.1//EN" "http://www.w3.org/Graphics/SVG/1.1/DTD/svg11.dtd">
<svg version="1.1" id="Capa_1" xmlns="http://www.w3.org/2000/svg" xmlns:xlink="http://www.w3.org/1999/xlink" x="0px" y="0px"
	 viewBox="0 0 457.979 457.979" style="enable-background:new 0 0 457.979 457.979;" xml:space="preserve">
<path d="M452.142,222.402c-0.123-0.039-12.44-3.973-24.269-8.086c-16.01-5.566-56.272-28.488-56.678-28.72
	c-1.756-1.001-3.237-1.467-4.662-1.467c-2.148,0-4.019,1.09-5.002,2.916c-1.182,2.194-0.811,4.779,1.104,7.684l3.605,5.466
	c-6.552-3.565-11.341-6.29-11.463-6.359c-1.756-1.002-3.237-1.468-4.662-1.468c-2.149,0-4.019,1.09-5.002,2.916
	c-1.182,2.194-0.811,4.779,1.104,7.684l5.622,8.522H156.259c-0.075-0.054-0.144-0.121-0.221-0.173l-34.957-23.62
	c-2.211-1.494-5.618-2.537-8.286-2.537H64.8c-2.418,0-4.568,1.064-5.899,2.921c-1.162,1.621-1.553,3.641-1.116,5.652H35.429
	c-2.339,0-4.381,1.135-5.46,3.036c-0.922,1.624-0.997,3.563-0.254,5.347h-24.1c-2.081,0-3.914,1.041-4.904,2.784
	c-0.989,1.743-0.943,3.852,0.123,5.636l11.004,18.454L0.835,247.441c-1.067,1.787-1.113,3.896-0.124,5.639
	c0.99,1.743,2.823,2.784,4.904,2.784h24.101c-0.743,1.784-0.668,3.723,0.254,5.347c1.079,1.901,3.121,3.036,5.46,3.036h22.356
	c-0.437,2.011-0.047,4.031,1.116,5.652c1.331,1.856,3.481,2.921,5.899,2.921h47.994c2.668,0,6.075-1.043,8.285-2.537l34.959-23.62
	c0.077-0.052,0.146-0.118,0.221-0.173h195.582l-5.622,8.523c-1.915,2.903-2.286,5.488-1.104,7.683
	c0.983,1.826,2.853,2.916,5.001,2.916c1.426,0,2.907-0.467,4.664-1.469c0.122-0.07,4.905-2.793,11.467-6.366l-3.611,5.474
	c-1.915,2.903-2.286,5.488-1.104,7.683c0.983,1.826,2.853,2.916,5.001,2.916c1.426,0,2.907-0.467,4.664-1.469
	c0.409-0.233,41.111-23.418,57.294-29.012c11.669-4.034,23.511-7.771,23.629-7.808c5.281-1.664,5.856-5.148,5.859-6.569
	C457.982,227.573,457.419,224.086,452.142,222.402z"/>
<g>
</g>
<g>
</g>
<g>
</g>
<g>
</g>
<g>
</g>
<g>
</g>
<g>
</g>
<g>
</g>
<g>
</g>
<g>
</g>
<g>
</g>
<g>
</g>
<g>
</g>
<g>
</g>
<g>
</g>
</svg>
